<?xml version="1.0" encoding="UTF-8"?>
<svg id="Layer_1" xmlns="http://www.w3.org/2000/svg" version="1.1" viewBox="0 0 511.8 119.5">
  <!-- Generator: Adobe Illustrator 29.3.1, SVG Export Plug-In . SVG Version: 2.1.0 Build 151)  -->
  <defs>
    <style>
      .st0 {
        fill: #fff;
      }
    </style>
  </defs>
  <polygon class="st0" points="264.4 95.3 266.8 95.3 266.8 101.7 268.1 101.7 268.2 101.7 268.2 95.3 270.6 95.3 270.6 94.1 264.4 94.1 264.4 95.3"/>
  <polygon class="st0" points="278.4 98.5 282.2 98.5 282.2 97.3 278.4 97.3 278.4 95.3 282.7 95.3 282.7 94.1 277.1 94.1 277.1 101.7 282.8 101.7 282.8 100.5 278.4 100.5 278.4 98.5"/>
  <path class="st0" d="M292.9,100.7c-1.4,0-2.5-1.2-2.5-2.7s1-2.7,2.5-2.7,1.5.3,2.1.9l.9-1c-.7-.7-.7-1.2-3-1.2s-3.9,1.7-3.9,3.9,1.7,3.9,3.9,3.9h0c1.4,0,2.3-.4,3.1-1.2l-.9-.9c-.7.6-.8,1-2.2,1Z"/>
  <polygon class="st0" points="307.5 97.3 303.9 97.3 303.9 94.1 302.6 94.1 302.6 101.7 303.9 101.7 303.9 98.5 307.5 98.5 307.5 101.7 308.8 101.7 308.8 94.1 307.5 94.1 307.5 97.3"/>
  <polygon class="st0" points="321.4 99.4 317.3 94.1 316.1 94.1 316.1 101.7 317.4 101.7 317.4 96.3 321.6 101.7 322.7 101.7 322.7 94.1 321.4 94.1 321.4 99.4"/>
  <path class="st0" d="M333.5,94c-2.3,0-4,1.8-4,3.9s1.7,3.9,4,3.9,4-1.8,4-3.9-1.7-3.9-4-3.9ZM333.5,100.6c-1.5,0-2.6-1.2-2.6-2.7s1.1-2.7,2.6-2.7,2.6,1.2,2.6,2.7-1.1,2.7-2.6,2.7Z"/>
  <polygon class="st0" points="345.7 94.1 344.4 94.1 344.4 101.7 349.7 101.7 349.7 100.5 345.7 100.5 345.7 94.1"/>
  <path class="st0" d="M359.6,94c-2.3,0-4,1.8-4,3.9s1.7,3.9,4,3.9,4-1.8,4-3.9-1.7-3.9-4-3.9ZM359.6,100.6c-1.5,0-2.6-1.2-2.6-2.7s1.1-2.7,2.6-2.7,2.6,1.2,2.6,2.7-1.1,2.7-2.6,2.7Z"/>
  <path class="st0" d="M374,98.6h1.9v1.4c-.4.4-.2.6-1.8.6s-2.6-1.2-2.6-2.7,1.1-2.7,2.5-2.7,1.5.3,2.1.8l.8-1c-.8-.6-.6-1-2.9-1s-3.9,1.7-3.9,3.9,1.5,3.9,3.9,3.9,2.4-.6,3.2-1.2v-3.2h-3.2v1.2Z"/>
  <polygon class="st0" points="386.9 97.5 384.8 94.1 383.2 94.1 386.2 98.7 386.2 101.7 387.5 101.7 387.5 101.7 387.6 101.7 387.6 98.7 390.6 94.1 389.1 94.1 386.9 97.5"/>
  <path class="st0" d="M408.7,97.3h0c-1.5-.4-1.8-.8-1.8-1.3s.5-.9,1.2-.9,1.4.3,2.1.8l.7-1c-.8-.7-1.3-1-2.8-1s-2.6.8-2.6,2.2.9,1.9,2.5,2.3c1.4.4,1.7.6,1.7,1.2s-.4,1-1.3,1-1.7-.4-2.4-1l-.8,1c.9.8,1.6,1.2,3.2,1.2s2.7-1.1,2.7-2.3-.8-1.8-2.4-2.2Z"/>
  <path class="st0" d="M421.5,94c-2.3,0-4,1.8-4,3.9s1.7,3.9,4,3.9,4-1.8,4-3.9-1.7-3.9-4-3.9ZM421.5,100.6c-1.5,0-2.6-1.2-2.6-2.7s1.1-2.7,2.6-2.7,2.6,1.2,2.6,2.7-1.1,2.7-2.6,2.7Z"/>
  <polygon class="st0" points="433.6 94.1 432.3 94.1 432.3 101.7 437.6 101.7 437.6 100.5 433.6 100.5 433.6 94.1"/>
  <path class="st0" d="M450.3,98.3v-4.3h-1.3v4.4c0,1.4-.7,2.1-1.9,2.1s-1.9-.8-1.9-2.2v-4.3h-1.3v4.4c0,2.3,1.2,3.4,3.2,3.4s3.3-1.1,3.3-3.4h0c0-.1,0-.1,0-.1Z"/>
  <polygon class="st0" points="456.9 95.3 459.3 95.3 459.3 101.7 460.6 101.7 460.7 101.7 460.7 95.3 463.1 95.3 463.1 94.1 456.9 94.1 456.9 95.3"/>
  <rect class="st0" x="469.6" y="94.1" width="1.3" height="7.6"/>
  <path class="st0" d="M481.7,94c-2.3,0-4,1.8-4,3.9s1.7,3.9,4,3.9,4-1.8,4-3.9-1.7-3.9-4-3.9ZM481.7,100.6c-1.5,0-2.6-1.2-2.6-2.7s1.1-2.7,2.6-2.7,2.6,1.2,2.6,2.7-1.1,2.7-2.6,2.7Z"/>
  <polygon class="st0" points="497.9 99.4 493.8 94.1 492.6 94.1 492.6 101.7 493.9 101.7 493.9 96.3 498.1 101.7 499.2 101.7 499.2 94.1 497.9 94.1 497.9 99.4"/>
  <path class="st0" d="M509.3,97.3h0c-1.5-.4-1.8-.8-1.8-1.3s.5-.9,1.2-.9,1.4.3,2.1.8l.7-1c-.8-.7-1.3-1-2.8-1s-2.6.8-2.6,2.2.9,1.9,2.5,2.3c1.4.4,1.7.6,1.7,1.2s-.4,1-1.3,1-1.7-.4-2.4-1l-.8,1c.9.8,1.6,1.2,3.2,1.2s2.7-1.1,2.7-2.3-.8-1.8-2.4-2.2Z"/>
  <path class="st0" d="M306.4,37.1h-17.6c-9.8,0-17.7,8-17.7,17.7v13.8c0,9.8,8,17.7,17.7,17.7h17.6c9.8,0,17.7-8,17.7-17.7v-13.8c0-9.8-8-17.7-17.7-17.7ZM315.4,68.6c0,5-4.1,9.1-9.1,9.1h-17.6c-5,0-9.1-4.1-9.1-9.1v-13.8c0-5,4.1-9.1,9.1-9.1h17.6c5,0,9.1,4.1,9.1,9.1v13.8Z"/>
  <path class="st0" d="M467.3,68.7v-2.6h34.3v-8.6h-42.9v11.2c0,9.8,8,17.7,17.7,17.7h35.4v-8.6h-35.4c-5,0-9.1-4.1-9.1-9.1Z"/>
  <path class="st0" d="M246.6,37.1h-40.4v8.6h40.3c2.3,0,4.2,1.9,4.2,4.2v3.4c0,2.3-1.9,4.2-4.2,4.2h-40.3v29h8.6v-20.4h17.7c1.4,0,2.7.7,3.5,1.9l12.4,18.5h10.3l-13.6-20.4h1.5c7,0,12.8-5.7,12.8-12.8v-3.4c0-7-5.7-12.8-12.8-12.8Z"/>
  <path class="st0" d="M426.3,76.2h-.2c-.7,1.6-2.1,2.6-3.8,2.6s-3.2-1-3.8-2.6l-16.2-39.1h-9.3l17.2,41.4c2,4.8,6.6,7.9,11.8,7.9h.8c5.2,0,9.8-3.1,11.8-7.9l17.2-41.4h-9.3l-16.2,39.1Z"/>
  <path class="st0" d="M470.4,37.1c-5,0-9.6,2.9-11.6,7.5l-.5,1.1h53.5v-8.6h-41.4Z"/>
  <path class="st0" d="M141.3,54.8h0v13.8c0,9.8,8,17.7,17.7,17.7h22.6c7,0,12.8-5.7,12.8-12.8v-16.2h-32.7v8.6h24.1v7.6c0,2.3-1.9,4.2-4.2,4.2h-22.6c-5,0-9.1-4.1-9.1-9.1v-13.8c0-5,4.1-9.1,9.1-9.1h35.4v-8.6h-35.4c-9.8,0-17.7,8-17.7,17.7Z"/>
  <path class="st0" d="M387.4,54.8c0-9.8-8-17.7-17.7-17.7h-17.6c-9.8,0-17.7,8-17.7,17.7v13.8c0,9.8,8,17.7,17.7,17.7h17.6c9.8,0,17.7-8,17.7-17.7v-13.8ZM378.7,68.6c0,5-4.1,9.1-9.1,9.1h-17.6c-5,0-9.1-4.1-9.1-9.1v-13.8c0-5,4.1-9.1,9.1-9.1h17.6c5,0,9.1,4.1,9.1,9.1v13.8Z"/>
  <path class="st0" d="M110.5,69.2c0-5.3-5.4-8.9-10.3-6.9l-20.4,8.4c-.3,2.7-2,5-4.5,6.1l-40.7,16.9v10.4c0,5.6,2.9,10.2,7.1,12.8,4,2.6,9.2,3.3,14.1,1.2l45.7-19c5.5-2.3,9.2-7.7,9.2-13.7v-16.3h-.2Z"/>
  <path class="st0" d="M76.8,38.5c-2-1.4-4.7-1.9-7.2-.9l-28,11.6c-3.9,1.6-4.3,7-.8,9.3l15.8,10.5c4.1,2.7,9.4,3.3,14,1.4l29.8-12.3c2.3-1,4.8-.6,6.7.5l-30.2-20.1h-.1Z"/>
  <path class="st0" d="M30.7,105.9v-50.1c0-6.2,3.7-11.7,9.4-14.1h0c0-.1,25.4-10.6,25.4-10.6l-30.7-20.5-25.4,10.5C3.7,23.5,0,29,0,35.2v50.1c0,5.4,2.8,10,6.8,12.7l30.9,20.7c-4.2-2.7-7-7.3-7-12.8Z"/>
  <polygon class="st0" points="78.3 25.8 47.6 5.3 39.1 8.8 69.8 29.3 78.3 25.8"/>
  <polygon class="st0" points="91.1 20.5 60.4 0 51.9 3.5 82.6 24 91.1 20.5"/>
</svg>